<svg width="67" height="50" viewBox="0 0 67 50" fill="none" xmlns="http://www.w3.org/2000/svg">
<path d="M63.3526 28.0378C65.2039 28.0377 66.7048 26.5369 66.7047 24.6855C66.7047 22.8341 65.2039 21.3333 63.3525 21.3333L63.3525 24.6855L63.3526 28.0378ZM0.981947 22.3157C-0.327162 23.6249 -0.327143 25.7474 0.98199 27.0565L22.3155 48.3896C23.6246 49.6987 25.7472 49.6987 27.0563 48.3896C28.3654 47.0804 28.3653 44.9579 27.0562 43.6488L8.09308 24.686L27.0559 5.72291C28.365 4.41378 28.365 2.29128 27.0558 0.98217C25.7467 -0.326939 23.6242 -0.32692 22.3151 0.982213L0.981947 22.3157ZM63.3525 24.6855L63.3525 21.3333L3.35231 21.3339L3.35234 24.6861L3.35237 28.0383L63.3526 28.0378L63.3525 24.6855Z" fill="#7375E9" fill-opacity="0.29"/>
</svg>
