<svg width="67" height="50" viewBox="0 0 67 50" fill="none" xmlns="http://www.w3.org/2000/svg">
<path d="M3.35205 21.3333C1.50068 21.3333 -0.000159425 22.8342 -0.000159425 24.6855C-0.000159425 26.5369 1.50068 28.0378 3.35205 28.0378L3.35205 24.6855L3.35205 21.3333ZM65.7226 27.0559C67.0317 25.7468 67.0317 23.6243 65.7226 22.3152L44.3893 0.981841C43.0802 -0.327279 40.9577 -0.327279 39.6485 0.981841C38.3394 2.29096 38.3394 4.41346 39.6485 5.72258L58.6115 24.6855L39.6485 43.6485C38.3394 44.9576 38.3394 47.0801 39.6485 48.3893C40.9577 49.6984 43.0802 49.6984 44.3893 48.3893L65.7226 27.0559ZM3.35205 24.6855L3.35205 28.0378L63.3523 28.0378V24.6855V21.3333L3.35205 21.3333L3.35205 24.6855Z" fill="#7375E9" fill-opacity="0.29"/>
</svg>
