<svg width="17" height="15" viewBox="0 0 17 15" fill="none" xmlns="http://www.w3.org/2000/svg">
<path d="M1 6.36426C0.447715 6.36426 -1.19209e-07 6.81197 -1.19209e-07 7.36426C-1.19209e-07 7.91654 0.447715 8.36426 1 8.36426L1 7.36426L1 6.36426ZM16.7071 8.07136C17.0976 7.68084 17.0976 7.04768 16.7071 6.65715L10.3431 0.293189C9.95262 -0.0973353 9.31946 -0.0973353 8.92893 0.293189C8.53841 0.683714 8.53841 1.31688 8.92893 1.7074L14.5858 7.36426L8.92893 13.0211C8.53841 13.4116 8.53841 14.0448 8.92893 14.4353C9.31946 14.8259 9.95262 14.8259 10.3431 14.4353L16.7071 8.07136ZM1 7.36426L1 8.36426L16 8.36426V7.36426V6.36426L1 6.36426L1 7.36426Z" fill="#7375E9" fill-opacity="0.29"/>
</svg>
