<svg width="20" height="21" viewBox="0 0 20 21" fill="none" xmlns="http://www.w3.org/2000/svg">
<path d="M5 1V4M15 1V4" stroke="white" stroke-width="2" stroke-linecap="round"/>
<path d="M0 8C0 6.114 -5.96046e-08 5.172 0.586 4.586C1.172 4 2.114 4 4 4H16C17.886 4 18.828 4 19.414 4.586C20 5.172 20 6.114 20 8C20 8.471 20 8.707 19.854 8.854C19.707 9 19.47 9 19 9H1C0.529 9 0.293 9 0.146 8.854C-8.9407e-08 8.707 0 8.47 0 8ZM0 17C0 18.886 -5.96046e-08 19.828 0.586 20.414C1.172 21 2.114 21 4 21H16C17.886 21 18.828 21 19.414 20.414C20 19.828 20 18.886 20 17V12C20 11.529 20 11.293 19.854 11.146C19.707 11 19.47 11 19 11H1C0.529 11 0.293 11 0.146 11.146C-8.9407e-08 11.293 0 11.53 0 12V17Z" fill="white"/>
</svg>
