<svg width="22" height="22" viewBox="0 0 22 22" fill="none" xmlns="http://www.w3.org/2000/svg">
<path d="M9.85162 13.8565C10.1854 13.9924 10.2966 14.3632 10.1483 14.6723C9.99995 14.9813 9.64149 15.1296 9.33248 14.9689L9.32012 14.9689C8.75153 14.7093 8.22003 14.3385 7.75032 13.8565C7.23308 13.3409 6.82268 12.7283 6.54266 12.0538C6.26263 11.3792 6.11849 10.6561 6.11849 9.92579C6.11849 9.19546 6.26263 8.47232 6.54266 7.79782C6.82268 7.12331 7.23308 6.5107 7.75032 5.99512L12.1136 1.63183C12.6292 1.11459 13.2418 0.704191 13.9163 0.424167C14.5908 0.144143 15.314 1.52005e-09 16.0443 1.59254e-09C16.7746 1.66503e-09 17.4977 0.144143 18.1722 0.424167C18.8468 0.704191 19.4594 1.11459 19.9749 1.63183C20.4922 2.14742 20.9026 2.76002 21.1826 3.43453C21.4626 4.10903 21.6068 4.83218 21.6068 5.5625C21.6068 6.29282 21.4626 7.01596 21.1826 7.69047C20.9026 8.36497 20.4922 8.97758 19.9749 9.49316L17.9602 11.5079L17.7748 9.95051L19.1097 8.61556C19.9172 7.80216 20.3704 6.70248 20.3704 5.55632C20.3704 4.41016 19.9172 3.31048 19.1097 2.49707C18.2963 1.68957 17.1966 1.23642 16.0505 1.23642C14.9043 1.23642 13.8046 1.68957 12.9912 2.49707L8.61556 6.87272C7.80806 7.68613 7.35491 8.7858 7.35491 9.93197C7.35491 11.0781 7.80806 12.1778 8.61556 12.9912C8.98638 13.362 9.40664 13.6463 9.85162 13.8565ZM1.63183 19.9749C1.11459 19.4594 0.704191 18.8468 0.424167 18.1722C0.144143 17.4977 -1.66503e-09 16.7746 -1.59254e-09 16.0443C-1.52005e-09 15.314 0.144143 14.5908 0.424167 13.9163C0.704191 13.2418 1.11459 12.6292 1.63183 12.1136L3.64661 10.0988L3.83202 11.6563L2.49707 12.9912C1.68957 13.8046 1.23642 14.9043 1.23642 16.0505C1.23642 17.1966 1.68957 18.2963 2.49707 19.1097C3.31048 19.9172 4.41016 20.3704 5.55632 20.3704C6.70248 20.3704 7.80216 19.9172 8.61556 19.1097L12.9912 14.7341C13.7987 13.9206 14.2519 12.821 14.2519 11.6748C14.2519 10.5286 13.7987 9.42897 12.9912 8.61556C12.6204 8.24475 12.2001 7.96045 11.7552 7.75032L11.7552 7.76268C11.6798 7.72956 11.6119 7.68142 11.5558 7.6212C11.4997 7.56098 11.4564 7.48994 11.4286 7.41244C11.4009 7.33493 11.3892 7.25257 11.3943 7.1704C11.3995 7.08823 11.4213 7.00797 11.4585 6.93452C11.6068 6.62551 11.9653 6.47718 12.2743 6.63787L12.2867 6.63787C12.8552 6.89744 13.3868 7.26826 13.8565 7.75032C14.3737 8.26591 14.7841 8.87851 15.0641 9.55302C15.3441 10.2275 15.4883 10.9507 15.4883 11.681C15.4883 12.4113 15.3441 13.1345 15.0641 13.809C14.7841 14.4835 14.3737 15.0961 13.8565 15.6117L9.49316 19.9749C8.97758 20.4922 8.36497 20.9026 7.69047 21.1826C7.01596 21.4626 6.29282 21.6068 5.5625 21.6068C4.83218 21.6068 4.10903 21.4626 3.43453 21.1826C2.76002 20.9026 2.14742 20.4922 1.63183 19.9749Z" fill="black"/>
</svg>
